<mxfile host="app.diagrams.net" modified="2023-03-10T08:58:54.047Z" agent="5.0 (Windows NT 10.0; Win64; x64) AppleWebKit/537.36 (KHTML, like Gecko) Chrome/110.0.0.0 Safari/537.36" etag="8SEHwc3Ob7Y2M9zVP1gB" version="21.0.6" type="github">
  <diagram name="第 1 页" id="bCJZ5mm3guKtCDsjNOrJ">
    <mxGraphModel dx="792" dy="1050" grid="1" gridSize="10" guides="1" tooltips="1" connect="1" arrows="1" fold="1" page="1" pageScale="1" pageWidth="827" pageHeight="1169" math="0" shadow="0">
      <root>
        <mxCell id="0" />
        <mxCell id="1" parent="0" />
        <mxCell id="6z_Rz3w-X8wMR0h1Vj2S-2" value="事件" style="rounded=0;whiteSpace=wrap;html=1;fillColor=#dae8fc;strokeColor=#6c8ebf;" vertex="1" parent="1">
          <mxGeometry x="190" y="510" width="130" height="50" as="geometry" />
        </mxCell>
        <mxCell id="6z_Rz3w-X8wMR0h1Vj2S-9" style="edgeStyle=orthogonalEdgeStyle;rounded=0;orthogonalLoop=1;jettySize=auto;html=1;entryX=1;entryY=0.5;entryDx=0;entryDy=0;" edge="1" parent="1" source="6z_Rz3w-X8wMR0h1Vj2S-3" target="6z_Rz3w-X8wMR0h1Vj2S-2">
          <mxGeometry relative="1" as="geometry" />
        </mxCell>
        <mxCell id="6z_Rz3w-X8wMR0h1Vj2S-11" value="监听事件" style="edgeLabel;html=1;align=center;verticalAlign=middle;resizable=0;points=[];" vertex="1" connectable="0" parent="6z_Rz3w-X8wMR0h1Vj2S-9">
          <mxGeometry x="0.1846" y="3" relative="1" as="geometry">
            <mxPoint x="7" y="-3" as="offset" />
          </mxGeometry>
        </mxCell>
        <mxCell id="6z_Rz3w-X8wMR0h1Vj2S-3" value="监听者" style="rounded=0;whiteSpace=wrap;html=1;fillColor=#fff2cc;strokeColor=#d6b656;" vertex="1" parent="1">
          <mxGeometry x="450" y="505" width="120" height="60" as="geometry" />
        </mxCell>
        <mxCell id="6z_Rz3w-X8wMR0h1Vj2S-7" style="edgeStyle=orthogonalEdgeStyle;rounded=0;orthogonalLoop=1;jettySize=auto;html=1;entryX=0.5;entryY=0;entryDx=0;entryDy=0;" edge="1" parent="1" source="6z_Rz3w-X8wMR0h1Vj2S-4" target="6z_Rz3w-X8wMR0h1Vj2S-2">
          <mxGeometry relative="1" as="geometry" />
        </mxCell>
        <mxCell id="6z_Rz3w-X8wMR0h1Vj2S-10" value="调度事件" style="edgeLabel;html=1;align=center;verticalAlign=middle;resizable=0;points=[];" vertex="1" connectable="0" parent="6z_Rz3w-X8wMR0h1Vj2S-7">
          <mxGeometry x="-0.25" y="2" relative="1" as="geometry">
            <mxPoint x="-2" y="20" as="offset" />
          </mxGeometry>
        </mxCell>
        <mxCell id="6z_Rz3w-X8wMR0h1Vj2S-4" value="事件调度器" style="rounded=0;whiteSpace=wrap;html=1;fillColor=#f8cecc;strokeColor=#b85450;" vertex="1" parent="1">
          <mxGeometry x="195" y="290" width="120" height="60" as="geometry" />
        </mxCell>
      </root>
    </mxGraphModel>
  </diagram>
</mxfile>
